# Blender 4.3.2
# www.blender.org
mtllib Drawer.mtl
o Drawer
v -0.012902 0.247999 -0.285128
v -0.012902 0.003825 -0.285128
v -0.012902 0.003825 0.286632
v -0.012902 0.247999 0.286632
v 0.003431 0.247999 -0.298644
v 0.003431 -0.009691 -0.298644
v 0.003431 -0.009691 0.300148
v 0.003431 0.247999 0.300148
v 0.003431 0.005511 -0.283441
v 0.003431 0.232796 -0.283441
v 0.003431 0.232796 0.284945
v 0.003431 0.005511 0.284945
v -0.002330 0.230045 -0.276561
v -0.002330 0.008262 -0.276561
v -0.002330 0.008263 0.278065
v -0.002330 0.230045 0.278065
v 0.005803 0.026329 -0.258495
v 0.005803 0.211978 -0.258495
v 0.005803 0.211978 0.259999
v 0.005803 0.026329 0.259999
v -0.012902 0.247999 -0.298644
v -0.012902 -0.009691 -0.298644
v -0.012902 -0.009691 0.300148
v -0.012902 0.247999 0.300148
v -0.483627 0.247999 -0.298644
v -0.483627 -0.009691 -0.298644
v -0.483627 -0.009691 0.300148
v -0.483627 0.247999 0.300148
v -0.483627 0.247999 -0.285128
v -0.483627 0.003825 -0.285128
v -0.483627 0.003825 0.286632
v -0.483627 0.247999 0.286632
v -0.497257 0.247999 -0.298644
v -0.497257 -0.009691 -0.298644
v -0.497257 0.247999 0.300148
v -0.497257 -0.009691 0.300148
v -0.497257 0.247999 -0.285128
v -0.497257 0.003825 -0.285128
v -0.497257 0.247999 0.286632
v -0.497257 0.003825 0.286632
vn -1.0000 -0.0000 -0.0000
vn 0.7667 -0.0000 -0.6420
vn -0.0000 1.0000 -0.0000
vn -0.0000 -0.0000 1.0000
vn -0.0000 -0.0000 -1.0000
vn -0.0000 -1.0000 -0.0000
vn 1.0000 -0.0000 -0.0000
vn 0.7667 -0.0000 0.6420
vn 0.4309 0.9024 -0.0000
vn 0.4309 -0.9024 -0.0000
vn 0.9119 -0.0000 -0.4105
vn 0.9119 0.4105 -0.0000
vn 0.9119 -0.0000 0.4105
vn 0.9119 -0.4105 -0.0000
vn -0.0000 -0.7071 -0.7071
vn -0.0000 -0.7071 0.7071
vt 0.554977 0.672598
vt 0.554977 0.744068
vt 0.592180 0.744068
vt 0.592180 0.672598
vt 0.591908 0.743857
vt 0.555249 0.743857
vt 0.594360 0.670909
vt 0.594360 0.745758
vt 0.552797 0.745758
vt 0.552797 0.670909
vt 0.591908 0.672809
vt 0.555249 0.672809
vt 0.558235 0.675123
vt 0.588921 0.675123
vt 0.588922 0.741543
vt 0.558235 0.741543
s 0
f 2/1/1 3/2/1 4/3/1 1/4/1
f 11/5/2 12/6/2 15/6/2 16/5/2
f 21/7/3 24/8/3 8/8/3 5/7/3
f 24/8/4 23/9/4 7/9/4 8/8/4
f 22/10/5 21/7/5 5/7/5 6/10/5
f 23/9/6 22/10/6 6/10/6 7/9/6
f 6/10/7 5/7/7 10/11/7 9/12/7
f 5/7/7 8/8/7 11/5/7 10/11/7
f 8/8/7 7/9/7 12/6/7 11/5/7
f 7/9/7 6/10/7 9/12/7 12/6/7
f 17/13/7 18/14/7 19/15/7 20/16/7
f 9/12/8 10/11/8 13/11/8 14/12/8
f 12/6/9 9/12/9 14/12/9 15/6/9
f 10/11/10 11/5/10 16/5/10 13/11/10
f 14/12/11 13/11/11 18/14/11 17/13/11
f 13/11/12 16/5/12 19/15/12 18/14/12
f 16/5/13 15/6/13 20/16/13 19/15/13
f 15/6/14 14/12/14 17/13/14 20/16/14
f 23/9/4 24/8/4 28/8/4 27/9/4
f 21/7/5 22/10/5 26/10/5 25/7/5
f 1/4/7 4/3/7 24/8/7 21/7/7
f 3/2/3 2/1/3 30/1/3 31/2/3
f 25/7/5 26/10/5 34/10/5 33/7/5
f 31/2/1 30/1/1 26/10/1 27/9/1
f 27/9/4 28/8/4 35/8/4 36/9/4
f 2/1/4 1/4/4 29/4/4 30/1/4
f 22/10/6 23/9/6 27/9/6 26/10/6
f 24/8/3 4/3/3 32/3/3 28/8/3
f 1/4/3 21/7/3 25/7/3 29/4/3
f 4/3/5 3/2/5 31/2/5 32/3/5
f 38/1/1 37/4/1 33/7/1 34/10/1
f 39/3/1 40/2/1 36/9/1 35/8/1
f 28/8/3 32/3/3 39/3/3 35/8/3
f 29/4/3 25/7/3 33/7/3 37/4/3
f 40/2/1 39/3/1 37/4/1 38/1/1
f 31/2/6 40/2/6 38/1/6 30/1/6
f 31/2/15 27/9/15 36/9/15 40/2/15
f 26/10/16 30/1/16 38/1/16 34/10/16
f 39/3/3 32/3/3 29/4/3 37/4/3
f 32/3/7 31/2/7 30/1/7 29/4/7
