# Blender 4.3.2
# www.blender.org
mtllib Furniture.mtl
o Furniture
v 0.000119 -0.000760 0.000000
v 0.000119 1.234553 0.000000
v 0.000119 -0.000760 -2.000000
v 0.000119 1.234553 -2.000000
v 0.779368 1.234553 0.000000
v 0.779368 1.234553 -2.000000
v 0.000119 1.170231 0.000000
v 0.000119 1.170231 -2.000000
v 0.779368 1.170231 -2.000000
v 0.779368 1.170231 0.000000
v 0.875469 1.170231 -2.000000
v 0.875469 1.170231 0.000000
v 0.857332 1.234553 -2.000000
v 0.875469 1.216415 -2.000000
v 0.866400 1.232123 -2.000000
v 0.873039 1.225484 -2.000000
v 0.875469 1.216415 0.000000
v 0.857332 1.234553 0.000000
v 0.873039 1.225484 0.000000
v 0.866400 1.232123 0.000000
v 0.000119 1.147098 -2.000000
v 0.779368 1.147098 -2.000000
v 0.779368 1.147098 0.000000
v 0.000119 1.147098 0.000000
v 0.000119 0.093717 -2.000000
v 0.779368 0.093717 -2.000000
v 0.779368 0.093717 0.000000
v 0.000119 0.093717 0.000000
v 0.000119 0.821532 0.000000
v 0.000119 0.821532 -2.000000
v 0.779368 0.821532 -2.000000
v 0.779368 0.821532 0.000000
v 0.000119 -0.000760 -1.333333
v 0.000119 -0.000760 -0.666667
v 0.000119 1.234553 -0.666667
v 0.000119 1.234553 -1.333333
v 0.779368 1.234553 -1.333333
v 0.779368 1.234553 -0.666667
v 0.779368 1.170231 -1.333333
v 0.779368 1.170231 -0.666667
v 0.000119 1.170231 -0.666667
v 0.000119 1.170231 -1.333333
v 0.875469 1.170231 -1.333333
v 0.875469 1.170231 -0.666667
v 0.857332 1.234553 -1.333333
v 0.857332 1.234553 -0.666667
v 0.866400 1.232123 -0.666667
v 0.866400 1.232123 -1.333333
v 0.873039 1.225484 -0.666667
v 0.873039 1.225484 -1.333333
v 0.875469 1.216415 -0.666667
v 0.875469 1.216415 -1.333333
v 0.000119 1.147098 -0.666667
v 0.000119 1.147098 -1.333333
v 0.779368 1.147098 -1.333333
v 0.779368 1.147098 -0.666667
v 0.779368 0.093717 -1.333333
v 0.779368 0.093717 -0.666667
v 0.000119 0.093717 -0.666667
v 0.000119 0.093717 -1.333333
v 0.779368 0.821532 -1.333333
v 0.779368 0.821532 -0.666667
v 0.000119 0.821532 -0.666667
v 0.000119 0.821532 -1.333333
v 0.779368 0.855470 -0.632729
v 0.779368 1.113160 -0.632729
v 0.779368 1.113160 -0.033938
v 0.779368 0.855470 -0.033938
v 0.779368 0.127655 -0.632729
v 0.779368 0.787595 -0.632729
v 0.779368 0.787595 -0.033938
v 0.779368 0.127655 -0.033938
v 0.779368 0.127655 -1.966062
v 0.779368 0.787595 -1.966062
v 0.779368 0.787595 -1.367271
v 0.779368 0.127655 -1.367271
v 0.779368 0.127655 -1.299396
v 0.779368 0.787595 -1.299396
v 0.779368 0.787595 -0.700604
v 0.779368 0.127655 -0.700604
v 0.779368 0.855470 -1.966062
v 0.779368 1.113160 -1.966062
v 0.779368 1.113160 -1.367271
v 0.779368 0.855470 -1.367271
v 0.779368 0.855470 -1.299396
v 0.779368 1.113160 -1.299396
v 0.779368 1.113160 -0.700604
v 0.779368 0.855470 -0.700604
v 0.287188 1.113160 -0.632729
v 0.287188 0.855470 -0.632729
v 0.287188 0.855470 -0.033938
v 0.287188 1.113160 -0.033938
v 0.287188 0.787595 -0.632729
v 0.287188 0.127655 -0.632729
v 0.287188 0.127655 -0.033938
v 0.287188 0.787595 -0.033938
v 0.287188 0.787595 -1.966062
v 0.287188 0.127655 -1.966062
v 0.287188 0.127655 -1.367271
v 0.287188 0.787595 -1.367271
v 0.287188 0.787595 -1.299396
v 0.287188 0.127655 -1.299396
v 0.287188 0.127655 -0.700604
v 0.287188 0.787595 -0.700604
v 0.287188 1.113160 -1.966062
v 0.287188 0.855470 -1.966062
v 0.287188 0.855470 -1.367271
v 0.287188 1.113160 -1.367271
v 0.287188 1.113160 -1.299396
v 0.287188 0.855470 -1.299396
v 0.287188 0.855470 -0.700604
v 0.287188 1.113160 -0.700604
v 0.790589 0.780591 -0.641560
v 0.766241 0.121252 -0.623914
v 0.761734 0.135439 -0.025308
v 0.786082 0.794778 -0.042954
v 0.769102 0.787524 -1.280248
v 0.778568 0.127885 -1.299300
v 0.783210 0.112790 -0.700717
v 0.773744 0.772430 -0.681665
v 0.769912 1.124661 -1.960510
v 0.774998 0.867227 -1.970802
v 0.782404 0.843455 -1.372529
v 0.777318 1.100889 -1.362236
v 0.806914 0.780066 -0.641425
v 0.782566 0.120727 -0.623779
v 0.778058 0.134914 -0.025172
v 0.802406 0.794253 -0.042819
v 0.785434 0.787733 -1.280369
v 0.794900 0.128093 -1.299422
v 0.799542 0.112999 -0.700838
v 0.790076 0.772638 -0.681786
v 0.786241 1.124991 -1.960699
v 0.791327 0.867557 -1.970991
v 0.798733 0.843785 -1.372718
v 0.793647 1.101219 -1.362426
v 0.791215 0.882141 -1.955195
v 0.786730 1.109200 -1.946117
v 0.793760 1.086635 -1.378222
v 0.798245 0.859576 -1.387300
v 0.781109 1.106062 -1.939286
v 0.785487 0.884500 -1.948144
v 0.792346 0.862481 -1.393997
v 0.787969 1.084043 -1.385139
v 0.793484 0.901995 -1.929466
v 0.789820 1.087461 -1.922051
v 0.796233 1.066876 -1.404006
v 0.799897 0.881411 -1.411421
v 0.783381 0.154325 -0.591712
v 0.805604 0.748024 -0.607819
v 0.801591 0.760655 -0.074885
v 0.779368 0.166956 -0.058778
v 0.794742 0.160099 -1.265756
v 0.786101 0.754071 -1.248366
v 0.790234 0.740633 -0.715452
v 0.798875 0.146660 -0.732842
v 0.798683 0.739087 -0.600421
v 0.777063 0.164028 -0.584752
v 0.773159 0.176316 -0.066285
v 0.794779 0.751375 -0.081954
v 0.779706 0.744481 -1.241320
v 0.788113 0.169156 -1.258237
v 0.792133 0.156082 -0.739790
v 0.783727 0.731408 -0.722873
v 0.784214 0.189232 -0.560442
v 0.804227 0.714639 -0.574947
v 0.800697 0.725750 -0.106156
v 0.780684 0.200343 -0.091651
v 0.794530 0.193449 -1.232820
v 0.786749 0.719103 -1.217160
v 0.790384 0.707282 -0.748387
v 0.798166 0.181628 -0.764047
v 0.756458 0.093717 -2.000000
v 0.756458 -0.000760 -2.000000
v 0.756458 -0.000760 -1.333333
v 0.756458 0.093717 0.000000
v 0.756458 -0.000760 0.000000
v 0.756458 0.093717 -0.666667
v 0.756458 -0.000760 -0.666667
v 0.756458 0.093717 -1.333333
vn -1.0000 -0.0000 -0.0000
vn -0.0000 -0.0000 -1.0000
vn -0.0000 -0.0000 1.0000
vn -0.0000 -1.0000 -0.0000
vn -0.0000 1.0000 -0.0000
vn 1.0000 -0.0000 -0.0000
vn 0.2588 0.9659 -0.0000
vn 0.7071 0.7071 -0.0000
vn 0.9659 0.2588 -0.0000
vn -0.9993 0.0367 -0.0084
vn -0.9999 -0.0146 0.0074
vn -0.9997 -0.0202 0.0116
vn 0.7985 -0.6016 0.0203
vn 0.7350 0.0306 -0.6773
vn 0.4486 -0.8928 -0.0410
vn 0.0197 -0.9990 -0.0399
vn -0.0197 0.9990 0.0399
vn 0.0074 -0.0270 -0.9996
vn 0.0124 -0.0397 0.9991
vn -0.0078 0.0288 -0.9996
vn -0.0323 -0.9992 0.0234
vn 0.0126 -0.9996 -0.0253
vn 0.0323 0.9992 -0.0234
vn -0.0126 0.9996 0.0253
vn -0.0074 0.0270 0.9996
vn 0.0078 -0.0288 0.9996
vn -0.0124 0.0397 -0.9991
vn 0.9997 0.0202 -0.0116
vn 0.7585 0.0410 -0.6503
vn 0.7744 -0.0100 0.6326
vn 0.4130 0.9102 0.0311
vn 0.9065 0.0347 -0.4207
vn 0.9035 0.4285 0.0058
vn 0.9167 0.0021 0.3996
vn 0.9197 -0.3917 -0.0269
vn 0.9993 -0.0369 0.0084
vn 0.9994 -0.0322 0.0083
vn 0.9999 0.0147 -0.0074
vn 0.9999 0.0128 -0.0074
vn 0.9992 -0.0378 0.0084
vn 0.9999 0.0150 -0.0074
vn 0.7455 -0.0087 0.6664
vn 0.7448 -0.0460 -0.6657
vn 0.8103 0.5860 0.0085
vn 0.7349 -0.0091 0.6781
vn 0.8247 -0.5651 -0.0206
vn 0.8358 0.5491 -0.0067
vn 0.9682 -0.0434 -0.2462
vn 0.9748 0.2232 0.0021
vn 0.9645 -0.0293 0.2625
vn 0.9583 -0.2854 0.0140
vn 0.9650 0.0219 -0.2615
vn 0.9638 0.2667 -0.0007
vn 0.9689 0.0069 0.2472
vn 0.9702 -0.2420 -0.0136
vt 0.614625 0.166667
vt 0.625000 0.166667
vt 0.625000 0.250000
vt 0.614625 0.250000
vt 0.625000 0.500000
vt 0.614625 0.500000
vt 0.625000 0.750000
vt 0.614625 0.750000
vt 0.622075 0.750000
vt 0.623537 0.750000
vt 0.624869 0.750000
vt 0.625000 1.000000
vt 0.614625 1.000000
vt 0.125000 0.666667
vt 0.375000 0.666667
vt 0.375000 0.750000
vt 0.125000 0.750000
vt 0.625000 0.666667
vt 0.875000 0.666667
vt 0.875000 0.750000
vt 0.599834 0.750000
vt 0.599834 1.000000
vt 0.599834 0.666667
vt 0.614625 0.666667
vt 0.599834 0.250000
vt 0.599834 0.500000
vt 0.599834 0.166667
vt 0.624869 0.500000
vt 0.623537 0.500000
vt 0.622075 0.500000
vt 0.622075 0.666667
vt 0.614625 0.583333
vt 0.624869 0.666667
vt 0.623537 0.666667
vt 0.547323 0.166667
vt 0.547323 0.250000
vt 0.547323 0.500000
vt 0.420411 0.662424
vt 0.420411 0.587575
vt 0.547323 0.750000
vt 0.547323 1.000000
vt 0.414938 0.757350
vt 0.414938 1.000000
vt 0.375000 1.000000
vt 0.414938 0.500000
vt 0.414938 0.583333
vt 0.375000 0.166667
vt 0.414938 0.166667
vt 0.414938 0.250000
vt 0.375000 0.250000
vt 0.414938 0.750000
vt 0.541849 0.670909
vt 0.541849 0.745758
vt 0.414938 0.492650
vt 0.414938 0.000000
vt 0.547323 0.000000
vt 0.547323 0.083333
vt 0.414938 0.083333
vt 0.552797 0.504242
vt 0.594360 0.504242
vt 0.420411 0.579091
vt 0.420411 0.504242
vt 0.375000 0.000000
vt 0.375000 0.083333
vt 0.414938 0.666667
vt 0.594360 0.670909
vt 0.594360 0.745758
vt 0.541849 0.587575
vt 0.599834 0.000000
vt 0.599834 0.083333
vt 0.625000 0.583333
vt 0.623537 0.583333
vt 0.622075 0.583333
vt 0.624869 0.583333
vt 0.614625 0.000000
vt 0.614625 0.083333
vt 0.599834 0.583333
vt 0.875000 0.500000
vt 0.875000 0.583333
vt 0.125000 0.500000
vt 0.375000 0.500000
vt 0.375000 0.583333
vt 0.125000 0.583333
vt 0.625000 0.000000
vt 0.625000 0.083333
vt 0.547323 0.666667
vt 0.552797 0.670909
vt 0.552797 0.745758
vt 0.420411 0.670909
vt 0.420411 0.745758
vt 0.541849 0.504242
vt 0.547323 0.583333
vt 0.541849 0.579091
vt 0.541849 0.662424
vt 0.594360 0.579091
vt 0.552797 0.579091
vt 0.594360 0.587575
vt 0.552797 0.587575
vt 0.594360 0.662424
vt 0.552797 0.662424
vt 0.536552 0.675014
vt 0.536552 0.741652
vt 0.536552 0.658319
vt 0.425709 0.658319
vt 0.591908 0.506142
vt 0.591908 0.577191
vt 0.555249 0.506143
vt 0.555249 0.577191
vt 0.558235 0.508457
vt 0.588922 0.508457
vt 0.588922 0.574876
vt 0.558235 0.574876
vt 0.425709 0.675015
vt 0.425709 0.741652
vt 0.536552 0.591681
vt 0.425709 0.591681
vt 0.429828 0.678207
vt 0.532432 0.678207
vt 0.532433 0.738460
vt 0.429828 0.738460
vt 0.429828 0.594874
vt 0.532432 0.594874
vt 0.532432 0.655126
vt 0.429828 0.655126
s 0
f 42/1/1 36/2/1 4/3/1 8/4/1
f 8/4/2 4/3/2 6/5/2 9/6/2
f 5/7/3 10/8/3 12/8/3 17/9/3 19/10/3 20/11/3 18/7/3
f 10/8/3 5/7/3 2/12/3 7/13/3
f 34/14/4 179/15/4 177/16/4 1/17/4
f 38/18/5 35/19/5 2/20/5 5/7/5
f 23/21/3 10/8/3 7/13/3 24/22/3
f 56/23/6 40/24/6 10/8/6 23/21/6
f 21/25/2 8/4/2 9/6/2 22/26/2
f 54/27/1 42/1/1 8/4/1 21/25/1
f 9/6/2 6/5/2 13/5/2 15/28/2 16/29/2 14/30/2 11/6/2
f 44/24/6 51/31/6 17/9/6 12/8/6
f 39/32/4 9/6/4 11/6/4 43/32/4
f 46/18/7 18/7/7 20/11/7 47/33/7
f 47/33/8 20/11/8 19/10/8 49/34/8
f 49/34/9 19/10/9 17/9/9 51/31/9
f 38/18/5 5/7/5 18/7/5 46/18/5
f 64/35/1 54/27/1 21/25/1 30/36/1
f 30/36/2 21/25/2 22/26/2 31/37/2
f 80/38/5 77/39/5 102/39/5 103/38/5
f 32/40/3 23/21/3 24/22/3 29/41/3
f 176/42/3 28/43/3 1/44/3 177/16/3
f 26/45/4 57/46/4 180/46/4 173/45/4
f 33/47/1 60/48/1 25/49/1 3/50/1
f 27/51/3 32/40/3 29/41/3 28/43/3 176/42/3
f 70/52/4 71/53/4 96/53/4 93/52/4
f 25/49/2 30/36/2 31/37/2 26/45/2 173/54/2
f 60/48/1 64/35/1 30/36/1 25/49/1
f 28/55/1 29/56/1 63/57/1 59/58/1
f 59/58/1 63/57/1 64/35/1 60/48/1
f 81/59/3 82/60/3 105/60/3 106/59/3
f 76/61/5 73/62/5 98/62/5 99/61/5
f 1/63/1 28/55/1 59/58/1 34/64/1
f 34/64/1 59/58/1 60/48/1 33/47/1
f 57/46/4 58/65/4 178/65/4 180/46/4
f 58/65/4 27/51/4 176/51/4 178/65/4
f 66/66/4 67/67/4 92/67/4 89/66/4
f 77/39/3 78/68/3 101/68/3 102/39/3
f 29/56/1 24/69/1 53/70/1 63/57/1
f 63/57/1 53/70/1 54/27/1 64/35/1
f 6/5/5 37/71/5 45/71/5 13/5/5
f 37/71/5 38/18/5 46/18/5 45/71/5
f 16/29/9 50/72/9 52/73/9 14/30/9
f 50/72/9 49/34/9 51/31/9 52/73/9
f 15/28/8 48/74/8 50/72/8 16/29/8
f 48/74/8 47/33/8 49/34/8 50/72/8
f 13/5/7 45/71/7 48/74/7 15/28/7
f 45/71/7 46/18/7 47/33/7 48/74/7
f 10/8/4 40/24/4 44/24/4 12/8/4
f 40/24/4 39/32/4 43/32/4 44/24/4
f 11/6/6 14/30/6 52/73/6 43/32/6
f 43/32/6 52/73/6 51/31/6 44/24/6
f 24/69/1 7/75/1 41/76/1 53/70/1
f 53/70/1 41/76/1 42/1/1 54/27/1
f 22/26/6 9/6/6 39/32/6 55/77/6
f 55/77/6 39/32/6 40/24/6 56/23/6
f 6/5/5 4/78/5 36/79/5 37/71/5
f 37/71/5 36/79/5 35/19/5 38/18/5
f 3/80/4 174/81/4 175/82/4 33/83/4
f 33/83/4 175/82/4 179/15/4 34/14/4
f 7/75/1 2/84/1 35/85/1 41/76/1
f 41/76/1 35/85/1 36/2/1 42/1/1
f 62/86/6 56/23/6 66/66/6 65/87/6
f 56/23/6 23/21/6 67/67/6 66/66/6
f 23/21/6 32/40/6 68/88/6 67/67/6
f 32/40/6 62/86/6 65/87/6 68/88/6
f 58/65/6 62/86/6 70/52/6 69/89/6
f 62/86/6 32/40/6 71/53/6 70/52/6
f 32/40/6 27/51/6 72/90/6 71/53/6
f 27/51/6 58/65/6 69/89/6 72/90/6
f 26/45/6 31/37/6 74/91/6 73/62/6
f 31/37/6 61/92/6 75/93/6 74/91/6
f 61/92/6 57/46/6 76/61/6 75/93/6
f 57/46/6 26/45/6 73/62/6 76/61/6
f 57/46/6 61/92/6 78/68/6 77/39/6
f 61/92/6 62/86/6 79/94/6 78/68/6
f 62/86/6 58/65/6 80/38/6 79/94/6
f 58/65/6 57/46/6 77/39/6 80/38/6
f 31/37/6 22/26/6 82/60/6 81/59/6
f 22/26/6 55/77/6 83/95/6 82/60/6
f 55/77/6 61/92/6 84/96/6 83/95/6
f 61/92/6 31/37/6 81/59/6 84/96/6
f 61/92/6 55/77/6 86/97/6 85/98/6
f 55/77/6 56/23/6 87/99/6 86/97/6
f 56/23/6 62/86/6 88/100/6 87/99/6
f 62/86/6 61/92/6 85/98/6 88/100/6
f 90/87/6 89/66/6 92/67/6 91/88/6
f 94/89/6 93/52/6 96/53/6 95/90/6
f 98/62/6 97/91/6 100/93/6 99/61/6
f 102/39/6 101/68/6 104/94/6 103/38/6
f 106/59/6 105/60/6 108/95/6 107/96/6
f 110/98/6 109/97/6 112/99/6 111/100/6
f 85/98/3 86/97/3 109/97/3 110/98/3
f 67/67/2 68/88/2 91/88/2 92/67/2
f 74/91/4 75/93/4 100/93/4 97/91/4
f 84/96/5 81/59/5 106/59/5 107/96/5
f 71/53/2 72/90/2 95/90/2 96/53/2
f 78/68/4 79/94/4 104/94/4 101/68/4
f 88/100/5 85/98/5 110/98/5 111/100/5
f 75/93/2 76/61/2 99/61/2 100/93/2
f 82/60/4 83/95/4 108/95/4 105/60/4
f 79/94/2 80/38/2 103/38/2 104/94/2
f 86/97/4 87/99/4 112/99/4 109/97/4
f 83/95/2 84/96/2 107/96/2 108/95/2
f 87/99/2 88/100/2 111/100/2 112/99/2
f 65/87/3 66/66/3 89/66/3 90/87/3
f 69/89/3 70/52/3 93/52/3 94/89/3
f 68/88/5 65/87/5 90/87/5 91/88/5
f 73/62/3 74/91/3 97/91/3 98/62/3
f 72/90/5 69/89/5 94/89/5 95/90/5
f 114/89/10 115/90/10 116/53/10 113/52/10
f 118/39/11 119/38/11 120/94/11 117/68/11
f 122/59/12 123/96/12 124/95/12 121/60/12
f 150/101/13 151/102/13 160/102/13 157/101/13
f 155/103/14 156/104/14 163/104/14 164/103/14
f 138/105/15 139/106/15 144/106/15 141/105/15
f 123/96/16 122/59/16 134/59/16 135/96/16
f 121/60/17 124/95/17 136/95/17 133/60/17
f 114/89/18 113/52/18 125/52/18 126/89/18
f 124/95/19 123/96/19 135/96/19 136/95/19
f 118/39/20 117/68/20 129/68/20 130/39/20
f 115/90/21 114/89/21 126/89/21 127/90/21
f 119/38/22 118/39/22 130/39/22 131/38/22
f 113/52/23 116/53/23 128/53/23 125/52/23
f 117/68/24 120/94/24 132/94/24 129/68/24
f 116/53/25 115/90/25 127/90/25 128/53/25
f 120/94/26 119/38/26 131/38/26 132/94/26
f 122/59/27 121/60/27 133/60/27 134/59/27
f 134/59/28 133/60/28 138/105/28 137/107/28
f 133/60/28 136/95/28 139/106/28 138/105/28
f 136/95/28 135/96/28 140/108/28 139/106/28
f 135/96/28 134/59/28 137/107/28 140/108/28
f 145/109/28 146/110/28 147/111/28 148/112/28
f 139/106/29 140/108/29 143/108/29 144/106/29
f 137/107/30 138/105/30 141/105/30 142/107/30
f 140/108/31 137/107/31 142/107/31 143/108/31
f 142/107/32 141/105/32 146/110/32 145/109/32
f 141/105/33 144/106/33 147/111/33 146/110/33
f 144/106/34 143/108/34 148/112/34 147/111/34
f 143/108/35 142/107/35 145/109/35 148/112/35
f 126/89/36 125/52/36 150/101/36 149/113/36
f 125/52/37 128/53/37 151/102/37 150/101/37
f 128/53/36 127/90/36 152/114/36 151/102/36
f 127/90/37 126/89/37 149/113/37 152/114/37
f 130/39/38 129/68/38 154/115/38 153/116/38
f 129/68/39 132/94/39 155/103/39 154/115/39
f 132/94/38 131/38/38 156/104/38 155/103/38
f 131/38/39 130/39/39 153/116/39 156/104/39
f 165/117/40 166/118/40 167/119/40 168/120/40
f 169/121/41 170/122/41 171/123/41 172/124/41
f 153/116/42 154/115/42 161/115/42 162/116/42
f 151/102/43 152/114/43 159/114/43 160/102/43
f 156/104/44 153/116/44 162/116/44 163/104/44
f 149/113/45 150/101/45 157/101/45 158/113/45
f 154/115/46 155/103/46 164/103/46 161/115/46
f 152/114/47 149/113/47 158/113/47 159/114/47
f 158/113/48 157/101/48 166/118/48 165/117/48
f 157/101/49 160/102/49 167/119/49 166/118/49
f 160/102/50 159/114/50 168/120/50 167/119/50
f 159/114/51 158/113/51 165/117/51 168/120/51
f 162/116/52 161/115/52 170/122/52 169/121/52
f 161/115/53 164/103/53 171/123/53 170/122/53
f 164/103/54 163/104/54 172/124/54 171/123/54
f 163/104/55 162/116/55 169/121/55 172/124/55
f 179/15/6 178/65/6 176/51/6 177/16/6
f 174/81/6 173/45/6 180/46/6 175/82/6
f 175/82/6 180/46/6 178/65/6 179/15/6
f 3/50/2 25/49/2 173/45/2 174/81/2
