# Blender 4.3.2
# www.blender.org
mtllib FurnitureDoor.mtl
o Door
v 0.001073 0.664115 0.023606
v 0.001073 0.021196 0.023606
v 0.001073 0.021196 0.602000
v 0.001073 0.664115 0.602000
v 0.017532 0.683908 0.000856
v 0.017532 0.001403 0.000856
v 0.017532 0.001403 0.624750
v 0.017532 0.683908 0.624750
v 0.017532 0.031178 0.035079
v 0.017532 0.654133 0.035079
v 0.017532 0.654133 0.590527
v 0.017532 0.031178 0.590527
v 0.010913 0.645678 0.042618
v 0.010913 0.039633 0.042618
v 0.010913 0.039633 0.582988
v 0.010913 0.645678 0.582988
v 0.017501 0.062155 0.068505
v 0.017501 0.623156 0.068505
v 0.017501 0.623156 0.557101
v 0.017501 0.062155 0.557101
v 0.001073 0.683908 0.000856
v 0.001073 0.001403 0.000856
v 0.001073 0.001403 0.624750
v 0.001073 0.683908 0.624750
v 0.006745 0.664115 0.023606
v 0.006745 0.021196 0.023606
v 0.006745 0.021196 0.602000
v 0.006745 0.664115 0.602000
vn -0.0000 -1.0000 -0.0000
vn 0.7874 0.6164 -0.0000
vn -0.0000 1.0000 -0.0000
vn -0.0000 -0.0000 1.0000
vn -0.0000 -0.0000 -1.0000
vn 1.0000 -0.0000 -0.0000
vn 0.7874 -0.6164 -0.0000
vn 0.7515 -0.0000 -0.6598
vn 0.7515 -0.0000 0.6598
vn 0.9691 -0.0000 -0.2466
vn 0.9598 0.2808 -0.0000
vn 0.9691 -0.0000 0.2466
vn 0.9598 -0.2808 -0.0000
vn -1.0000 -0.0000 -0.0000
vt 0.538328 0.576362
vt 0.538328 0.506972
vt 0.425709 0.574985
vt 0.425709 0.508348
vt 0.541849 0.504242
vt 0.541849 0.579091
vt 0.420411 0.579091
vt 0.420411 0.504242
vt 0.536552 0.508348
vt 0.536552 0.574985
vt 0.429828 0.511540
vt 0.532432 0.511540
vt 0.532433 0.571793
vt 0.429828 0.571793
vt 0.423933 0.506972
vt 0.423933 0.576362
s 0
f 4/1/1 1/2/1 25/2/1 28/1/1
f 12/3/2 9/4/2 14/4/2 15/3/2
f 21/5/3 24/6/3 8/6/3 5/5/3
f 24/6/4 23/7/4 7/7/4 8/6/4
f 22/8/5 21/5/5 5/5/5 6/8/5
f 23/7/1 22/8/1 6/8/1 7/7/1
f 6/8/6 5/5/6 10/9/6 9/4/6
f 5/5/6 8/6/6 11/10/6 10/9/6
f 8/6/6 7/7/6 12/3/6 11/10/6
f 7/7/6 6/8/6 9/4/6 12/3/6
f 17/11/6 18/12/6 19/13/6 20/14/6
f 10/9/7 11/10/7 16/10/7 13/9/7
f 11/10/8 12/3/8 15/3/8 16/10/8
f 9/4/9 10/9/9 13/9/9 14/4/9
f 14/4/10 13/9/10 18/12/10 17/11/10
f 13/9/11 16/10/11 19/13/11 18/12/11
f 16/10/12 15/3/12 20/14/12 19/13/12
f 15/3/13 14/4/13 17/11/13 20/14/13
f 2/15/14 1/2/14 21/5/14 22/8/14
f 3/16/14 2/15/14 22/8/14 23/7/14
f 1/2/14 4/1/14 24/6/14 21/5/14
f 4/1/14 3/16/14 23/7/14 24/6/14
f 26/15/14 27/16/14 28/1/14 25/2/14
f 1/2/4 2/15/4 26/15/4 25/2/4
f 3/16/5 4/1/5 28/1/5 27/16/5
f 2/15/3 3/16/3 27/16/3 26/15/3
