# Blender 4.3.2
# www.blender.org
mtllib VendingMachine.mtl
o Cube
v -0.628126 0.000000 0.418204
v -0.545138 2.067012 0.418204
v -0.628126 0.000000 -0.418204
v -0.628126 2.150000 -0.418204
v 0.628126 0.000000 0.418204
v 0.574739 1.969203 0.418204
v 0.628126 0.000000 -0.418204
v 0.628126 2.150000 -0.418204
v 0.280997 0.000000 -0.418204
v 0.280997 2.150000 -0.418204
v 0.280997 0.000000 0.418204
v 0.198009 2.067012 0.418204
v -0.545138 0.741296 0.418204
v -0.628126 0.658307 -0.418204
v 0.628126 0.658307 -0.418204
v 0.574739 0.776613 0.418204
v 0.198009 0.741296 0.418204
v 0.280997 0.658307 -0.418204
v -0.628126 0.547171 -0.418204
v -0.628126 0.232797 -0.418204
v 0.628126 0.547171 -0.418204
v 0.628126 0.232797 -0.418204
v 0.628126 0.547171 0.418204
v 0.628126 0.232797 0.418204
v 0.197932 0.274113 0.418204
v 0.197932 0.505855 0.418204
v 0.280997 0.232797 -0.418204
v 0.280997 0.547171 -0.418204
v -0.545061 0.274113 0.418204
v -0.545061 0.505855 0.418204
v -0.628126 0.658307 0.418204
v -0.628126 2.150000 0.418204
v 0.334384 1.969203 0.418204
v 0.334384 0.776613 0.418204
v -0.486630 0.799804 0.460900
v -0.486630 2.008504 0.460900
v 0.139501 2.008504 0.460900
v 0.139501 0.799804 0.460900
v -0.545138 0.741296 0.460900
v -0.545138 2.067012 0.460900
v 0.198009 2.067012 0.460900
v 0.198009 0.741296 0.460900
v -0.486630 0.799804 0.441453
v -0.486630 2.008504 0.441453
v 0.139501 2.008504 0.441453
v 0.139501 0.799804 0.441453
v -0.628126 0.232797 0.418204
v -0.628126 0.547171 0.418204
v 0.280997 0.232797 0.418204
v 0.280997 0.547171 0.418204
v -0.510449 0.308725 0.459727
v -0.510449 0.471243 0.459727
v 0.163320 0.308725 0.459727
v 0.163320 0.471243 0.459727
v -0.545061 0.274113 0.459727
v -0.545061 0.505855 0.459727
v 0.197932 0.274113 0.459727
v 0.197932 0.505855 0.459727
v -0.510449 0.471243 0.242730
v 0.163320 0.471243 0.242730
v -0.510449 0.308725 0.307311
v -0.510449 0.373306 0.242730
v -0.510449 0.317377 0.275021
v -0.510449 0.341015 0.251382
v 0.163320 0.373306 0.242730
v 0.163320 0.308725 0.307311
v 0.163320 0.341015 0.251382
v 0.163320 0.317377 0.275021
v 0.628126 2.150000 0.418204
v 0.280997 2.150000 0.418204
v 0.628126 0.658307 0.418204
v 0.280997 0.658307 0.418204
v 0.574739 1.969203 0.461073
v 0.334384 1.969203 0.461073
v 0.574739 0.776613 0.461073
v 0.334384 0.776613 0.461073
vn -1.0000 -0.0000 -0.0000
vn -0.0000 -0.0000 -1.0000
vn 1.0000 -0.0000 -0.0000
vn -0.0000 -1.0000 -0.0000
vn -0.0000 1.0000 -0.0000
vn -0.0000 -0.0000 1.0000
vn -0.0000 0.9914 0.1305
vn -0.0000 0.1305 0.9914
vn -0.0000 0.8660 0.5000
vn -0.0000 0.7071 0.7071
vn -0.0000 0.2588 0.9659
vt 0.451547 0.000000
vt 0.625000 0.000000
vt 0.625000 0.250000
vt 0.451547 0.250000
vt 0.451547 0.424603
vt 0.625000 0.424603
vt 0.625000 0.500000
vt 0.451547 0.500000
vt 0.625000 0.750000
vt 0.451547 0.750000
vt 0.461197 0.984062
vt 0.461197 0.841335
vt 0.299603 0.500000
vt 0.375000 0.500000
vt 0.375000 0.750000
vt 0.299603 0.750000
vt 0.700397 0.500000
vt 0.875000 0.500000
vt 0.875000 0.750000
vt 0.700397 0.750000
vt 0.125000 0.500000
vt 0.125000 0.750000
vt 0.457755 0.813801
vt 0.457755 0.761596
vt 0.438625 0.000000
vt 0.438625 0.250000
vt 0.375000 0.825397
vt 0.402069 0.825397
vt 0.402069 1.000000
vt 0.375000 1.000000
vt 0.438625 0.424603
vt 0.438625 0.500000
vt 0.402069 0.750000
vt 0.402069 0.500000
vt 0.438625 0.500000
vt 0.438625 0.750000
vt 0.375000 0.424603
vt 0.402069 0.424603
vt 0.438625 0.825397
vt 0.451547 0.825397
vt 0.451547 1.000000
vt 0.438625 1.000000
vt 0.438625 0.825397
vt 0.375000 0.000000
vt 0.402069 0.000000
vt 0.402069 0.250000
vt 0.375000 0.250000
vt 0.406874 0.833332
vt 0.433820 0.833332
vt 0.615350 0.984062
vt 0.625000 1.000000
vt 0.615350 0.841335
vt 0.625000 0.825397
vt 0.468000 0.972825
vt 0.468000 0.852572
vt 0.608547 0.972825
vt 0.608547 0.852572
vt 0.406874 0.992065
vt 0.433820 0.992065
vt 0.410898 0.840726
vt 0.429796 0.840726
vt 0.418408 0.840726
vt 0.414653 0.840726
vt 0.411234 0.840726
vt 0.410898 0.984671
vt 0.429796 0.984671
vt 0.410898 0.984670
vt 0.418408 0.984671
vt 0.418408 0.840726
vt 0.411234 0.984671
vt 0.414653 0.984671
vt 0.618792 0.813801
vt 0.618792 0.761596
s 1
f 31/1/1 32/2/1 4/3/1 14/4/1
f 18/5/2 10/6/2 8/7/2 15/8/2
f 15/8/3 8/7/3 69/9/3 71/10/3
f 13/11/4 17/12/4 42/12/4 39/11/4
f 9/13/4 7/14/4 5/15/4 11/16/4
f 10/17/5 4/18/5 32/19/5 70/20/5
f 8/7/5 10/17/5 70/20/5 69/9/5
f 3/21/4 9/13/4 11/16/4 1/22/4
f 34/23/4 16/24/4 75/24/4 76/23/4
f 14/4/2 4/3/2 10/6/2 18/5/2
f 48/25/1 31/1/1 14/4/1 19/26/1
f 11/27/6 49/28/6 47/29/6 1/30/6
f 28/31/2 18/5/2 15/8/2 21/32/2
f 5/15/6 24/33/6 49/28/6 11/27/6
f 7/14/3 22/34/3 24/33/3 5/15/3
f 19/26/2 14/4/2 18/5/2 28/31/2
f 21/35/3 15/8/3 71/10/3 23/36/3
f 9/37/2 27/38/2 22/34/2 7/14/2
f 50/39/6 72/40/6 31/41/6 48/42/6
f 23/36/6 71/10/6 72/40/6 50/43/6
f 1/44/1 47/45/1 20/46/1 3/47/1
f 48/25/1 19/26/1 20/46/1 47/45/1
f 28/31/2 21/32/2 22/34/2 27/38/2
f 21/35/3 23/36/3 24/33/3 22/34/3
f 25/48/3 26/49/3 58/49/3 57/48/3
f 23/36/6 50/43/6 49/28/6 24/33/6
f 19/26/2 28/31/2 27/38/2 20/46/2
f 3/47/2 20/46/2 27/38/2 9/37/2
f 13/11/6 2/50/6 32/51/6 31/41/6
f 2/50/6 12/52/6 70/53/6 32/51/6
f 12/52/6 17/12/6 72/40/6 70/53/6
f 17/12/6 13/11/6 31/41/6 72/40/6
f 35/54/5 38/55/5 46/55/5 43/54/5
f 12/52/5 2/50/5 40/50/5 41/52/5
f 17/12/3 12/52/3 41/52/3 42/12/3
f 2/50/1 13/11/1 39/11/1 40/50/1
f 35/54/6 36/56/6 40/50/6 39/11/6
f 36/56/6 37/57/6 41/52/6 40/50/6
f 37/57/6 38/55/6 42/12/6 41/52/6
f 38/55/6 35/54/6 39/11/6 42/12/6
f 46/55/6 45/57/6 44/56/6 43/54/6
f 37/57/4 36/56/4 44/56/4 45/57/4
f 38/55/1 37/57/1 45/57/1 46/55/1
f 36/56/3 35/54/3 43/54/3 44/56/3
f 29/58/6 30/59/6 48/42/6 47/29/6
f 26/49/6 25/48/6 49/28/6 50/39/6
f 30/59/6 26/49/6 50/39/6 48/42/6
f 25/48/6 29/58/6 47/29/6 49/28/6
f 53/60/1 54/61/1 60/61/1 65/62/1 67/63/1 68/64/1 66/60/1
f 26/49/5 30/59/5 56/59/5 58/49/5
f 30/59/1 29/58/1 55/58/1 56/59/1
f 29/58/4 25/48/4 57/48/4 55/58/4
f 51/65/6 52/66/6 56/59/6 55/58/6
f 54/61/6 53/60/6 57/48/6 58/49/6
f 52/66/6 54/61/6 58/49/6 56/59/6
f 53/60/6 51/65/6 55/58/6 57/48/6
f 51/65/5 53/60/5 66/60/7 61/67/7
f 54/61/4 52/66/4 59/66/4 60/61/4
f 60/61/6 59/66/6 62/68/8 65/69/8
f 61/67/7 66/60/7 68/64/9 63/70/9
f 63/70/9 68/64/9 67/63/10 64/71/10
f 64/71/11 67/63/11 65/69/8 62/68/8
f 52/66/3 51/65/3 61/65/3 63/70/3 64/71/3 62/68/3 59/66/3
f 33/72/6 6/73/6 69/9/6 70/53/6
f 6/73/6 16/24/6 71/10/6 69/9/6
f 34/23/6 33/72/6 70/53/6 72/40/6
f 16/24/6 34/23/6 72/40/6 71/10/6
f 75/24/6 73/73/6 74/72/6 76/23/6
f 16/24/3 6/73/3 73/73/3 75/24/3
f 33/72/1 34/23/1 76/23/1 74/72/1
f 6/73/5 33/72/5 74/72/5 73/73/5
