# Blender 4.3.2
# www.blender.org
mtllib Wall.mtl
o Cube
v -0.153947 0.000000 3.000000
v -0.153947 2.500000 3.000000
v -0.153947 0.000000 0.500000
v -0.153947 2.500000 0.500000
v 0.153947 0.000000 3.000000
v 0.153947 2.500000 3.000000
v 0.153947 0.000000 0.500000
v 0.153947 2.500000 0.500000
v -0.153947 2.500000 0.000000
v -0.153947 0.000000 0.000000
v 0.153947 0.000000 0.000000
v 0.153947 2.500000 0.000000
v -0.263651 2.500000 0.500000
v -0.263651 0.000000 0.500000
v 0.263651 2.500000 0.500000
v 0.263651 0.000000 0.500000
v -0.263651 2.500000 0.000000
v -0.263651 0.000000 0.000000
v 0.263651 2.500000 0.000000
v 0.263651 0.000000 0.000000
v -0.153947 2.589021 0.500000
v 0.153947 2.589021 0.500000
v -0.153947 2.589021 0.000000
v 0.153947 2.589021 0.000000
v 0.263651 2.589021 0.500000
v 0.263651 2.589021 0.000000
v -0.263651 2.589021 0.000000
v -0.263651 2.589021 0.500000
v -0.153947 2.652798 0.500000
v 0.153947 2.652798 0.500000
v -0.153947 2.652798 0.000000
v 0.153947 2.652798 0.000000
v 0.263651 2.652798 0.500000
v 0.263651 2.652798 0.000000
v -0.263651 2.652798 0.000000
v -0.263651 2.652798 0.500000
v -0.153947 2.589021 0.564772
v 0.153947 2.589021 0.564772
v -0.153947 2.589021 -0.064772
v 0.153947 2.589021 -0.064772
v -0.153947 2.652798 0.564772
v 0.153947 2.652798 0.564772
v 0.263651 2.589021 0.564772
v 0.263651 2.589021 -0.064772
v -0.263651 2.589021 0.564772
v -0.263651 2.589021 -0.064772
v -0.153947 2.652798 -0.064772
v 0.153947 2.652798 -0.064772
v 0.263651 2.652798 0.564772
v 0.263651 2.652798 -0.064772
v -0.263651 2.652798 0.564772
v -0.263651 2.652798 -0.064772
v -0.324108 2.589021 0.000000
v -0.324108 2.589021 -0.064772
v 0.324108 2.589021 0.500000
v 0.324108 2.589021 0.000000
v -0.324108 2.589021 0.500000
v 0.324108 2.652798 0.500000
v 0.324108 2.652798 0.000000
v -0.324108 2.652798 0.000000
v -0.324108 2.652798 0.500000
v 0.324108 2.589021 0.564772
v 0.324108 2.652798 0.564772
v -0.324108 2.652798 -0.064772
v 0.324108 2.652798 -0.064772
v 0.324108 2.589021 -0.064772
v -0.324108 2.589021 0.564772
v -0.324108 2.652798 0.564772
vn -1.0000 -0.0000 -0.0000
vn -0.0000 -0.0000 1.0000
vn 1.0000 -0.0000 -0.0000
vn -0.0000 -1.0000 -0.0000
vn -0.0000 1.0000 -0.0000
vn -0.0000 -0.0000 -1.0000
vt 0.375000 0.000000
vt 0.625000 0.000000
vt 0.625000 0.250000
vt 0.375000 0.250000
vt 0.875000 0.500000
vt 0.625000 0.500000
vt 0.375000 0.500000
vt 0.625000 0.750000
vt 0.375000 0.750000
vt 0.625000 1.000000
vt 0.375000 1.000000
vt 0.125000 0.500000
vt 0.125000 0.750000
vt 0.875000 0.750000
s 0
f 1/1/1 2/2/1 4/3/1 3/4/1
f 4/5/2 8/6/2 22/6/2 21/5/2
f 7/7/3 8/6/3 6/8/3 5/9/3
f 5/9/2 6/8/2 2/10/2 1/11/2
f 3/12/4 7/7/4 5/9/4 1/13/4
f 8/6/5 4/5/5 2/14/5 6/8/5
f 10/4/6 9/3/6 12/6/6 11/7/6
f 19/6/6 12/6/6 24/6/6 26/6/6
f 10/12/4 3/12/4 14/12/4 18/12/4
f 7/7/4 3/12/4 10/12/4 11/7/4
f 14/4/1 13/3/1 17/3/1 18/4/1
f 15/6/3 16/7/3 20/7/3 19/6/3
f 3/4/2 4/3/2 13/3/2 14/4/2
f 9/3/6 10/4/6 18/4/6 17/3/6
f 7/7/4 11/7/4 20/7/4 16/7/4
f 9/3/6 17/3/6 27/3/6 23/3/6
f 8/6/2 7/7/2 16/7/2 15/6/2
f 11/7/6 12/6/6 19/6/6 20/7/6
f 44/6/6 50/6/6 65/6/6 66/6/6
f 35/5/5 31/5/5 47/5/5 52/5/5
f 31/5/5 32/6/5 48/6/5 47/5/5
f 12/6/6 9/3/6 23/3/6 24/6/6
f 17/3/1 13/3/1 28/3/1 27/3/1
f 13/3/2 4/3/2 21/3/2 28/3/2
f 8/6/2 15/6/2 25/6/2 22/6/2
f 15/6/3 19/6/3 26/6/3 25/6/3
f 29/5/5 30/6/5 32/6/5 31/5/5
f 32/6/5 30/6/5 33/6/5 34/6/5
f 29/5/5 31/5/5 35/5/5 36/5/5
f 35/5/5 52/5/5 64/5/5 60/5/5
f 29/5/5 36/5/5 51/5/5 41/5/5
f 23/3/4 27/3/4 46/3/4 39/3/4
f 25/6/4 26/6/4 56/6/4 55/6/4
f 28/3/4 45/3/4 67/3/4 57/3/4
f 44/6/6 40/6/6 48/6/6 50/6/6
f 39/3/6 46/3/6 52/3/6 47/3/6
f 37/5/2 38/6/2 42/6/2 41/5/2
f 40/6/6 39/3/6 47/3/6 48/6/6
f 45/3/2 37/3/2 41/3/2 51/3/2
f 38/6/2 43/6/2 49/6/2 42/6/2
f 22/6/4 25/6/4 43/6/4 38/6/4
f 46/3/4 27/3/4 53/3/4 54/3/4
f 26/6/4 24/6/4 40/6/4 44/6/4
f 33/6/5 30/6/5 42/6/5 49/6/5
f 21/5/4 22/6/4 38/6/4 37/5/4
f 52/3/6 46/3/6 54/3/6 64/3/6
f 28/3/4 21/3/4 37/3/4 45/3/4
f 32/6/5 34/6/5 50/6/5 48/6/5
f 24/6/4 23/3/4 39/3/4 40/6/4
f 30/6/5 29/5/5 41/5/5 42/6/5
f 53/3/1 60/3/1 64/3/1 54/3/1
f 53/3/1 57/3/1 61/3/1 60/3/1
f 55/6/3 58/6/3 63/6/3 62/6/3
f 55/6/3 56/6/3 59/6/3 58/6/3
f 59/6/3 56/6/3 66/6/3 65/6/3
f 61/3/1 57/3/1 67/3/1 68/3/1
f 43/6/4 25/6/4 55/6/4 62/6/4
f 27/3/4 28/3/4 57/3/4 53/3/4
f 34/6/5 33/6/5 58/6/5 59/6/5
f 45/3/2 51/3/2 68/3/2 67/3/2
f 33/6/5 49/6/5 63/6/5 58/6/5
f 26/6/4 44/6/4 66/6/4 56/6/4
f 36/5/5 35/5/5 60/5/5 61/5/5
f 49/6/2 43/6/2 62/6/2 63/6/2
f 50/6/5 34/6/5 59/6/5 65/6/5
f 51/5/5 36/5/5 61/5/5 68/5/5
